<svg width="496.441" height="42.02" viewBox="0 0 496.441 42.02" xmlns="http://www.w3.org/2000/svg"><g id="svgGroup" stroke-linecap="round" fill-rule="nonzero" font-size="9pt" stroke="#ffffff" stroke-width="0.5" fill="#ffffff" style="stroke:#ffffff;stroke-width:0.5;fill:#ffffff"><path d="M 200.971 41.8 L 192.781 41.8 L 192.781 11.56 L 234.991 11.56 Q 243.811 11.56 243.811 18.616 L 243.811 41.8 L 235.621 41.8 L 235.621 18.049 Q 235.621 16.285 233.416 16.285 L 222.391 16.285 L 222.391 41.8 L 214.201 41.8 L 214.201 18.049 Q 214.201 16.285 211.996 16.285 L 200.971 16.285 L 200.971 41.8 Z M 411.391 41.8 L 402.571 41.8 L 402.571 0.22 L 412.651 0.22 L 435.961 30.964 L 435.961 0.22 L 444.781 0.22 L 444.781 41.8 L 434.701 41.8 L 411.391 11.056 L 411.391 41.8 Z M 463.051 41.8 L 454.231 41.8 L 454.231 0.22 L 464.311 0.22 L 487.621 30.964 L 487.621 0.22 L 496.441 0.22 L 496.441 41.8 L 486.361 41.8 L 463.051 11.056 L 463.051 41.8 Z M 355.951 34.24 L 355.951 7.78 Q 355.951 0.22 365.401 0.22 L 394.381 0.22 L 394.381 5.575 L 367.291 5.575 Q 364.771 5.575 364.771 7.591 L 364.771 34.429 Q 364.771 36.445 367.291 36.445 L 394.381 36.445 L 394.381 41.8 L 365.401 41.8 Q 355.951 41.8 355.951 34.24 Z M 102.691 41.8 L 94.501 41.8 L 94.501 0.22 L 102.691 0.22 L 102.691 11.56 L 119.071 11.56 Q 127.891 11.56 127.891 18.616 L 127.891 41.8 L 119.701 41.8 L 119.701 18.049 Q 119.701 16.285 117.496 16.285 L 102.691 16.285 L 102.691 41.8 Z M 338.941 41.8 L 317.521 41.8 L 317.521 37.075 L 337.366 37.075 Q 339.571 37.075 339.571 35.311 L 339.571 30.019 Q 339.571 28.255 337.366 28.255 L 326.341 28.255 Q 317.521 28.255 317.521 21.199 L 317.521 18.616 Q 317.521 11.56 326.341 11.56 L 345.241 11.56 L 345.241 16.285 L 327.916 16.285 Q 325.711 16.285 325.711 18.049 L 325.711 21.766 Q 325.711 23.53 327.916 23.53 L 338.941 23.53 Q 347.761 23.53 347.761 30.586 L 347.761 34.744 Q 347.761 41.8 338.941 41.8 Z M 87.571 41.8 L 55.441 41.8 L 55.441 37.075 L 76.798 16.285 L 56.071 16.285 L 56.071 11.56 L 86.941 11.56 L 86.941 16.285 L 65.584 37.075 L 87.571 37.075 L 87.571 41.8 Z M 136.081 34.744 L 136.081 18.616 Q 136.081 11.56 144.901 11.56 L 159.391 11.56 Q 168.211 11.56 168.211 18.616 L 168.211 28.255 L 144.271 28.255 L 144.271 35.311 Q 144.271 37.075 146.476 37.075 L 166.951 37.075 L 166.951 41.8 L 144.901 41.8 Q 136.081 41.8 136.081 34.744 Z M 144.271 18.049 L 144.271 23.53 L 160.021 23.53 L 160.021 18.049 Q 160.021 16.285 157.816 16.285 L 146.476 16.285 Q 144.271 16.285 144.271 18.049 Z M 252.001 34.744 L 252.001 18.616 Q 252.001 11.56 260.821 11.56 L 275.311 11.56 Q 284.131 11.56 284.131 18.616 L 284.131 28.255 L 260.191 28.255 L 260.191 35.311 Q 260.191 37.075 262.396 37.075 L 282.871 37.075 L 282.871 41.8 L 260.821 41.8 Q 252.001 41.8 252.001 34.744 Z M 260.191 18.049 L 260.191 23.53 L 275.941 23.53 L 275.941 18.049 Q 275.941 16.285 273.736 16.285 L 262.396 16.285 Q 260.191 16.285 260.191 18.049 Z M 0.001 34.744 L 0.001 30.586 Q 0.001 23.53 8.821 23.53 L 23.941 23.53 L 23.941 18.049 Q 23.941 16.285 21.736 16.285 L 2.521 16.285 L 2.521 11.56 L 23.311 11.56 Q 32.131 11.56 32.131 18.616 L 32.131 41.8 L 8.821 41.8 Q 0.001 41.8 0.001 34.744 Z M 8.191 30.019 L 8.191 35.311 Q 8.191 37.075 10.396 37.075 L 23.941 37.075 L 23.941 28.255 L 10.396 28.255 Q 8.191 28.255 8.191 30.019 Z M 48.511 41.8 L 40.321 41.8 L 40.321 0.22 L 48.511 0.22 L 48.511 41.8 Z M 300.511 41.8 L 292.321 41.8 L 292.321 18.616 Q 292.321 11.56 301.141 11.56 L 311.851 11.56 L 311.851 16.285 L 302.716 16.285 Q 300.511 16.285 300.511 18.049 L 300.511 41.8 Z M 184.591 41.8 L 176.401 41.8 L 176.401 11.56 L 184.591 11.56 L 184.591 41.8 Z M 184.591 6.52 L 176.401 6.52 L 176.401 0.22 L 184.591 0.22 L 184.591 6.52 Z"/></g></svg>